<svg xmlns="http://www.w3.org/2000/svg" viewBox="0 0 62 73.6" style="width: 50px;"><path fill="#1a0056" d="M11 27H1l15 26h10zM26 .7H16L1 27h10z"></path><path fill="#1a0056" d="M16 .7h20v10.2H16z"></path><path fill="#1a0056" d="M36 1l-5.8 5.4L41 27h10z"></path><path fill="#1a0056" d="M41.8 26.4l9.2-.3L41.8 43h-8.9z"></path><path class="o-logo__text" fill="#060055" d="M24 71.7c0 .2 0 .4-.1.6-.1.2-.2.3-.3.5-.1.1-.3.2-.5.3s-.4.1-.6.1h-4.2c-.2 0-.4 0-.6-.1-.2-.1-.3-.2-.5-.3s-.2-.3-.3-.5-.1-.4-.1-.6V62h1.5v4.5c0-.2.1-.4.1-.6.1-.2.2-.3.3-.5.1-.1.3-.2.5-.3.2-.1.4-.1.6-.1h2.7c.2 0 .4 0 .6.1s.3.2.5.3c.1.1.2.3.3.5.1.2.1.4.1.6v5.2zm-5.6-5v5.1h4.2v-5.1h-4.2z"></path><path class="o-logo__text" fill="#060055" d="M22.5 73.6h-4.2c-.3 0-.5-.1-.7-.2-.2-.1-.4-.2-.6-.4-.2-.2-.3-.4-.4-.6-.1-.2-.2-.5-.2-.7v-10h2.3v3.4c.1-.1.2-.1.4-.2s.5-.1.7-.1h2.7c.3 0 .5.1.7.2.2.1.4.2.6.4s.3.4.4.6c.1.2.2.5.2.7v5.1c0 .3-.1.5-.2.7-.1.2-.2.4-.4.6-.2.2-.4.3-.6.4-.2.1-.4.1-.7.1zm-5.2-11.1v9.3c0 .2 0 .3.1.4.1.1.1.2.2.3.1.1.2.2.3.2.1.1.3.1.4.1h4.2c.2 0 .3 0 .4-.1.1-.1.3-.1.3-.2.1-.1.2-.2.2-.3.1-.1.1-.3.1-.4v-5.1c0-.2 0-.3-.1-.4-.1-.1-.1-.2-.2-.3-.1-.1-.2-.2-.3-.2-.1-.1-.3-.1-.4-.1h-2.7c-.1 0-.3 0-.4.1-.1.1-.2.1-.3.2-.1.1-.2.2-.2.3v.1H23v5.9h-5v-9.7h-.7zm1.5 8.8h3.4V67h-3.4v4.3zM26.5 62.1h1.6v1.6h-1.6v-1.6zm1.6 3.1v8.1h-1.5v-8.1h1.5z"></path><path class="o-logo__text" fill="#060055" d="M28.5 73.6h-2.3v-8.9h2.3v8.9zm-1.5-.8h.7v-7.3H27v7.3zm1.5-8.8h-2.4v-2.4h2.4V64zm-1.6-.8h.8v-.8h-.8v.8zM30.2 65.2h2v-2.5h1.5v2.5h2.6v1.5h-2.6v5.1h2.6v1.5h-2.6c-.2 0-.4 0-.6-.1s-.3-.2-.5-.3-.2-.3-.3-.5-.1-.4-.1-.6v-5.1h-2v-1.5z"></path><path class="o-logo__text" fill="#060055" d="M36.7 73.6h-3c-.3 0-.5-.1-.7-.2-.2-.1-.4-.2-.6-.4-.2-.2-.3-.4-.4-.6-.1-.2-.2-.5-.2-.7V67h-2v-2.3h2v-2.5H34v2.5h2.6V67H34v4.3h2.6v2.3zm-6.1-7.3h2v5.5c0 .2 0 .3.1.4.1.1.1.2.2.3.1.1.2.2.4.2.1.1.3.1.4.1h2.2v-.7h-2.6v-5.9h2.6v-.7h-2.6V63h-.7v2.5h-2v.8z"></path><g><path class="o-logo__text" fill="#060055" d="M40.5 63.6v1.6h2.6v1.5h-2.6v6.6H39v-6.6h-2v-1.5h2v-1.6c0-.2 0-.4.1-.6.1-.2.2-.3.3-.5.1-.1.3-.2.5-.3s.4-.1.6-.1h2.6v1.5h-2.6z"></path><path class="o-logo__text" fill="#060055" d="M40.9 73.6h-2.3V67h-2v-2.3h2v-1.2c0-.3.1-.5.2-.7.1-.2.2-.4.4-.6.2-.2.4-.3.6-.4.2-.1.5-.2.7-.2h3V64h-2.6v.8h2.6v2.3h-2.6v6.5zm-1.5-.8h.7v-6.6h2.6v-.7h-2.6v-2.4h2.6v-.7h-2.2c-.1 0-.3 0-.4.1-.1.1-.2.1-.4.2-.1.1-.2.2-.2.3-.1.1-.1.3-.1.4v2h-2v.7h2v6.7z"></path></g><g><path class="o-logo__text" fill="#060055" d="M45.2 62.1h1.6v1.6h-1.6v-1.6zm1.5 3.1v8.1h-1.5v-8.1h1.5z"></path><path class="o-logo__text" fill="#060055" d="M47.1 73.6h-2.3v-8.9h2.3v8.9zm-1.5-.8h.7v-7.3h-.7v7.3zm1.6-8.8h-2.4v-2.4h2.4V64zm-1.6-.8h.8v-.8h-.8v.8z"></path></g><g><path fill="#1a0056" d="M46 54H16c-.4 0-.7-.2-.9-.5l-15-26c-.2-.3-.2-.7 0-1l15-26c.2-.3.5-.5.9-.5h30c.4 0 .7.2.9.5l15 26c.2.3.2.7 0 1l-15 26c-.2.3-.5.5-.9.5zm-29.4-2h28.8l14.4-25L45.4 2H16.6L2.2 27l14.4 25z"></path><path fill="#1a0056" d="M26 54c-.3 0-.7-.2-.9-.5l-15-26c-.2-.3-.2-.7 0-1l9.2-16c.2-.3.5-.5.9-.5h11.5c.6 0 1 .4 1 1s-.4 1-1 1H20.8l-8.7 15 14.7 25.5c.3.5.1 1.1-.4 1.4-.1 0-.2.1-.4.1z"></path><path fill="#1a0056" d="M30.2 44c-.3 0-.7-.2-.9-.5l-9.2-16c-.2-.3-.2-.7 0-1l9.2-16c.3-.5.9-.6 1.4-.4.5.3.6.9.4 1.4L22.2 27l8.9 15.5c.3.5.1 1.1-.4 1.4-.1 0-.3.1-.5.1z"></path><path fill="#1a0056" d="M41.8 44H30.2c-.6 0-1-.4-1-1s.4-1 1-1h10.9l8.7-15L35.1 1.5c-.2-.5-.1-1.1.4-1.4.5-.2 1.1-.1 1.4.4l15 26c.2.3.2.7 0 1l-9.2 16c-.3.3-.6.5-.9.5z"></path><path fill="#1a0056" d="M31.8 44c-.2 0-.3 0-.5-.1-.5-.3-.6-.9-.4-1.4 0 0 7.4-12.8 8.9-15.5l-8.9-15.5c-.3-.5-.1-1.1.4-1.4.5-.3 1.1-.1 1.4.4l9.2 16c.3.5.3.5-1.4 3.5l-7.8 13.5c-.3.3-.6.5-.9.5z"></path></g><circle fill="#1a0056" cx="31" cy="27" r="5"></circle></svg>